<?xml version="1.0" encoding="utf-8"?>
<!-- Generate more at customizr.net -->
<!DOCTYPE svg PUBLIC "-//W3C//DTD SVG 1.1//EN" "http://www.w3.org/Graphics/SVG/1.1/DTD/svg11.dtd">
<svg class="social-icon" version="1.1" xmlns="http://www.w3.org/2000/svg" xmlns:xlink="http://www.w3.org/1999/xlink">
	<defs>
	
<symbol id="facebook" class="social-icon" viewBox="0 0 100 100" style="height: 27px; width: 27px;">
	<rect class="outer-shape" x="0" y="0" width="100" height="100" rx="20" ry="20" style="opacity: 1; fill: #910000;"></rect>
	<path class="inner-shape" style="opacity: 1; fill: rgb(247, 247, 247);" transform="translate(13,13) scale(0.74)" d="M82.667,1H17.335C8.351,1,1,8.351,1,17.336v65.329c0,8.99,7.351,16.335,16.334,16.335h65.332 C91.652,99.001,99,91.655,99,82.665V17.337C99,8.353,91.652,1.001,82.667,1L82.667,1z M84.318,50H68.375v42.875H50V50h-8.855V35.973 H50v-9.11c0-12.378,5.339-19.739,19.894-19.739h16.772V22.3H72.967c-4.066-0.007-4.57,2.12-4.57,6.078l-0.023,7.594H86.75 l-2.431,14.027V50z"></path>
</symbol>

<symbol id="twitter" class="social-icon" viewBox="0 0 100 100" style="height: 27px; width: 27px;">
	<rect class="outer-shape" x="0" y="0" width="100" height="100" rx="20" ry="20" style="opacity: 1; fill: #910000;"></rect>
	<path class="inner-shape" style="opacity: 1; fill: rgb(247, 247, 247);" transform="translate(13,13) scale(0.74)" d="M99.001,19.428c-3.606,1.608-7.48,2.695-11.547,3.184c4.15-2.503,7.338-6.466,8.841-11.189 c-3.885,2.318-8.187,4-12.768,4.908c-3.667-3.931-8.893-6.387-14.676-6.387c-11.104,0-20.107,9.054-20.107,20.223 c0,1.585,0.177,3.128,0.52,4.609c-16.71-0.845-31.525-8.895-41.442-21.131C6.092,16.633,5.1,20.107,5.1,23.813 c0,7.017,3.55,13.208,8.945,16.834c-3.296-0.104-6.397-1.014-9.106-2.529c-0.002,0.085-0.002,0.17-0.002,0.255 c0,9.799,6.931,17.972,16.129,19.831c-1.688,0.463-3.463,0.71-5.297,0.71c-1.296,0-2.555-0.127-3.783-0.363 c2.559,8.034,9.984,13.882,18.782,14.045c-6.881,5.424-15.551,8.657-24.971,8.657c-1.623,0-3.223-0.096-4.796-0.282 c8.898,5.738,19.467,9.087,30.82,9.087c36.982,0,57.206-30.817,57.206-57.543c0-0.877-0.02-1.748-0.059-2.617 C92.896,27.045,96.305,23.482,99.001,19.428z"></path>
</symbol>
<symbol id="youtube" class="social-icon" viewBox="0 0 100 100" style="height: 27px; width: 27px;">
	<rect class="outer-shape" x="0" y="0" width="100" height="100" rx="20" ry="20" style="opacity: 1; fill: #910000;"></rect>
	<path class="inner-shape" style="opacity: 1; fill: rgb(247, 247, 247);" transform="translate(13,13) scale(0.74)" d="M97.284,26.359c-1-5.352-5.456-9.346-10.574-9.839c-12.221-0.784-24.488-1.42-36.731-1.428 c-12.244-0.007-24.464,0.616-36.687,1.388c-5.137,0.497-9.592,4.47-10.589,9.842C1.567,34.058,1,41.869,1,49.678 s0.568,15.619,1.703,23.355c0.996,5.372,5.451,9.822,10.589,10.314c12.226,0.773,24.439,1.561,36.687,1.561 c12.239,0,24.515-0.688,36.731-1.479c5.118-0.497,9.574-5.079,10.574-10.428C98.43,65.278,99,57.477,99,49.676 C99,41.88,98.428,34.083,97.284,26.359z M38.89,63.747V35.272l26.52,14.238L38.89,63.747z"></path>
</symbol>
<symbol id="email" class="social-icon" width="27px" height="27px" viewBox="92.072 2.84 15.935 10.16">
<path style="fill: #910000;" d="M96.044,7.487c0.072-0.35,0.181-0.688,0.324-1.007l-2.662-2.697h12.668l-2.511,2.547c0.113,0.356,0.175,0.74,0.175,1.146
	c0,0.004,0,0.007,0,0.01l3.806-3.842c0.135-0.135,0.175-0.337,0.102-0.513c-0.073-0.175-0.244-0.291-0.435-0.291H92.568
	c-0.19,0-0.361,0.116-0.434,0.291c-0.073,0.176-0.032,0.378,0.103,0.513L96.044,7.487z"/>
<path style="fill: #910000;" d="M107.995,4.639l-0.928,0.928v6.492H93.014v-6.48L92.08,4.645c-0.004,0.025-0.008,0.051-0.008,0.076v7.808
	c0,0.124,0.05,0.245,0.138,0.333C92.298,12.95,92.419,13,92.544,13h14.993c0.124,0,0.245-0.05,0.333-0.137
	c0.088-0.088,0.138-0.208,0.138-0.333V4.746C108.007,4.708,108.002,4.672,107.995,4.639z"/>
<path style="fill: #910000;" d="M101.7,6.348c-0.253-0.127-0.681-0.224-1.11-0.224c-1.383,0-2.298,1.091-2.298,2.288c0,0.779,0.477,1.247,1.081,1.247
	c0.545,0,0.983-0.263,1.305-0.799h0.029c0.02,0.556,0.36,0.799,0.789,0.799c0.983,0,1.791-0.877,1.791-2.317
	c0-1.627-1.178-2.815-2.892-2.815c-2.182,0-3.603,1.724-3.603,3.72c0,1.899,1.392,3.068,3,3.068c0.672,0,1.198-0.098,1.763-0.371
	l-0.165-0.497c-0.39,0.205-0.916,0.322-1.441,0.322c-1.441,0-2.493-0.964-2.493-2.59c0-1.919,1.315-3.126,2.853-3.126
	c1.509,0,2.337,0.993,2.337,2.337c0,1.12-0.536,1.714-0.993,1.695c-0.292,0-0.38-0.302-0.262-0.954L101.7,6.348z M100.668,7.837
	c-0.097,0.575-0.535,1.16-0.993,1.16c-0.36,0-0.546-0.273-0.546-0.673c0-0.827,0.584-1.548,1.324-1.548
	c0.165,0,0.292,0.03,0.39,0.059L100.668,7.837z"/>
</symbol>
</defs>
</svg>

